/* XPM */
static char *result[] = {
/* columns rows colors chars-per-pixel */
"50 50 42 1 ",
"  c black",
". c black",
"X c #D47636",
"o c #FBAF3C",
"O c #FFE95F",
"+ c black",
"@ c #898179",
"# c #538794",
"$ c #4B91A2",
"% c #4C95A7",
"& c #4C98AA",
"* c #4D99AB",
"= c #5197A8",
"- c #5199AA",
"; c #519AAC",
": c #5999A9",
"> c #5C9FAF",
", c #4E9DB0",
"< c #509EB1",
"1 c #5AADAB",
"2 c #4EA0B3",
"3 c #4FA2B5",
"4 c #4FA2B6",
"5 c #4FA3B7",
"6 c #4FA4B7",
"7 c black",
"8 c #50A0B3",
"9 c #50A3B6",
"0 c #50A3B7",
"q c #53A3B6",
"w c #55A2B4",
"e c #50A5B7",
"r c #54A7B6",
"t c #8ECF95",
"y c #81C4A0",
"u c #8CD0AC",
"i c #99D4A0",
"p c #89D4B0",
"a c #8AD7B2",
"s c #92E7BF",
"d c #92E8C0",
"f c gray87",
/* pixels */
"77777777777777777777777777777777777777777777777777",
"++++++++++++++++++++++++++++++++++++++++++++++++++",
"++++++++++++++++++++++++++++++++++++++++++++++++++",
"++++++++++++++++++++++++++++++++++++++++++++++++++",
"++++++++++++++++++++++++++++++++++++++++++++++++++",
"++++++++++++++++++++++++++++++++++++++++++++++++++",
"++++++++++++++++++++++++++++++++++++++++++++++++++",
"++++++++++++++++++++++++++++++++++++++++++++++++++",
"++++++++++++++++++++++++++++++++++++++++++++++++++",
"++++++++++++++++++++++++++++++++++++++++++++++++++",
"++++++++++++++++++++++++++++++++++++++++++++++++++",
"                       ...                        ",
"                      .XOO.                       ",
"                     .XoOOo.                      ",
"                    .Xoo.Xoo.                     ",
"                    .Xo. .Xo.                     ",
"                  ...Xo. .Xo...                   ",
"                 .Xooooo.XooOoo.                  ",
"                .XooooooOOooOooo.                 ",
"               .Xoo..XooOOoo..XoO.                ",
"               .Xo.  .XoOOo.  .XO.                ",
"               .Xo.  .XoOOo.  .XO.                ",
"               .Xoo..XooOOoo..XoO.                ",
"                .XooooooOOooOooo.                 ",
"                 .XoooooOOooOoo.                  ",
"                  .....XXX.....                   ",
"                      .XXo.                       ",
"                      .XXO.                       ",
"                      .XXO.                       ",
"                      .XXO...                     ",
"                      .XXO.oO.                    ",
"                      .XX.Xo.                     ",
"                      .XXoXo.                     ",
"                      .XXOXoO.                    ",
"                      .XX.Xo.                     ",
"                      .XX..oo.                    ",
"                       ..  ..                     ",
"                                                  ",
"++++++++++++++++++++++++++++++++++++++++++++++++++",
"7++++++++++++++++++++++++++++++++++++++++++++++++7",
"7++++++++++++++++++++++++++++++++++++++++++++++++7",
"7++++++++++++++++++++++++++++++++++++++++++++++++7",
"7++++++++++++++++++++++++++++++++++++++++++++++++7",
"7++++++++++++++++++++++++++++++++++++++++++++++++7",
"7++++++++++++++++++++++++++++++++++++++++++++++++7",
"7++++++++++++++++++++++++++++++++++++++++++++++++7",
"7++++++++++++++++++++++++++++++++++++++++++++++++7",
"7++++++++++++++++++++++++++++++++++++++++++++++++7",
"7++++++++++++++++++++++++++++++++++++++++++++++++7",
"77777777777777777777777777777777777777777777777777"
};
